<?xml version="1.0" encoding="utf-8"?>
<!-- Generator: Adobe Illustrator 26.2.0, SVG Export Plug-In . SVG Version: 6.00 Build 0)  -->
<svg version="1.1" id="Layer_1" xmlns="http://www.w3.org/2000/svg" xmlns:xlink="http://www.w3.org/1999/xlink" x="0px" y="0px"
	 viewBox="0 0 99 41" enable-background="new 0 0 99 41" xml:space="preserve">
<g>
	<path d="M97.4,34.8h1.2v-0.2h-1v-1.6h-0.2V34.8z M96,34.7c-0.5,0-0.8-0.3-0.8-0.7c0-0.4,0.3-0.7,0.8-0.7c0.5,0,0.8,0.3,0.8,0.7
		C96.8,34.4,96.5,34.7,96,34.7 M96,34.9c0.6,0,1-0.3,1-0.9c0-0.5-0.4-0.9-1-0.9s-1,0.4-1,0.9C95,34.5,95.4,34.9,96,34.9 M93.7,34.7
		c-0.5,0-0.8-0.3-0.8-0.7c0-0.4,0.3-0.7,0.8-0.7c0.5,0,0.8,0.3,0.8,0.7C94.4,34.4,94.2,34.7,93.7,34.7 M93.7,34.9c0.6,0,1-0.3,1-0.9
		c0-0.5-0.4-0.9-1-0.9s-1,0.4-1,0.9C92.7,34.5,93.1,34.9,93.7,34.9 M90.7,34.8h0.2V34H92v0.8h0.2v-1.8H92v0.8h-1.2v-0.8h-0.2V34.8z
		 M88.6,34c0,0.5,0.4,0.9,1,0.9c0.2,0,0.4,0,0.6-0.1l-0.1-0.2c-0.2,0.1-0.4,0.1-0.6,0.1c-0.5,0-0.8-0.3-0.8-0.7
		c0-0.4,0.3-0.7,0.8-0.7c0.2,0,0.4,0,0.6,0.1l0.1-0.2c-0.2-0.1-0.4-0.1-0.6-0.1C89,33.1,88.6,33.4,88.6,34 M86.8,34.7
		c0.1,0.1,0.4,0.2,0.7,0.2c0.4,0,0.8-0.2,0.8-0.5c0-0.7-1.2-0.3-1.2-0.8c0-0.2,0.1-0.3,0.5-0.3c0.2,0,0.4,0.1,0.6,0.1l0.1-0.2
		c-0.1-0.1-0.4-0.2-0.6-0.2c-0.4,0-0.7,0.2-0.7,0.5c0,0.2,0.1,0.2,0.1,0.3c0.3,0.3,1,0.1,1,0.5c0,0.2-0.2,0.4-0.6,0.4
		c-0.2,0-0.4-0.1-0.6-0.2L86.8,34.7z M84,34.8h0.2v-1.4h0l1.4,1.4h0.1v-1.8h-0.2v1.4h0l-1.4-1.4H84V34.8z M82.5,34.7
		c-0.5,0-0.8-0.3-0.8-0.7c0-0.4,0.3-0.7,0.8-0.7c0.5,0,0.8,0.3,0.8,0.7C83.3,34.4,83,34.7,82.5,34.7 M82.5,34.9c0.6,0,1-0.3,1-0.9
		c0-0.5-0.4-0.9-1-0.9c-0.6,0-1,0.4-1,0.9C81.5,34.5,81.9,34.9,82.5,34.9 M80.9,34.8h0.2v-1.8h-0.2V34.8z M79.7,34.8h0.2v-1.6h0.7
		v-0.2H79v0.2h0.7V34.8z M77.7,34.1l0.4-0.8h0l0.4,0.8H77.7z M77.1,34.8h0.2l0.3-0.6h0.9l0.3,0.6H79l-0.9-1.8H78L77.1,34.8z
		 M75.3,34c0,0.5,0.4,0.9,1,0.9c0.2,0,0.4,0,0.6-0.1l-0.1-0.2c-0.2,0.1-0.4,0.1-0.6,0.1c-0.5,0-0.8-0.3-0.8-0.7
		c0-0.4,0.3-0.7,0.8-0.7c0.2,0,0.4,0,0.6,0.1l0.1-0.2c-0.2-0.1-0.4-0.1-0.6-0.1C75.7,33.1,75.3,33.4,75.3,34 M74,34.9
		c0.4,0,0.7-0.1,0.8-0.4c0-0.1,0.1-0.2,0.1-0.4v-1h-0.2v1c0,0.1,0,0.2,0,0.3c-0.1,0.2-0.3,0.3-0.6,0.3c-0.3,0-0.5-0.1-0.6-0.3
		c0-0.1,0-0.2,0-0.3v-1h-0.2v1c0,0.1,0,0.2,0,0.3C73.3,34.7,73.6,34.9,74,34.9 M71.2,34.7v-1.4h0.4c0.2,0,0.4,0,0.5,0.1
		c0.3,0.1,0.4,0.3,0.4,0.6c0,0.3-0.2,0.6-0.5,0.7c-0.1,0-0.3,0.1-0.5,0.1H71.2z M71,34.8h0.5c0.2,0,0.4,0,0.5-0.1
		c0.4-0.1,0.7-0.4,0.7-0.9c0-0.4-0.2-0.7-0.6-0.8c-0.1-0.1-0.3-0.1-0.5-0.1H71V34.8z M69.3,34.8h1.2v-0.2h-1V34h0.9v-0.2h-0.9v-0.6
		h1v-0.2h-1.2V34.8z M67,34.1l0.4-0.8h0l0.4,0.8H67z M66.4,34.8h0.2l0.3-0.6h0.9l0.3,0.6h0.2l-0.9-1.8h-0.1L66.4,34.8z M65.9,34.8
		h0.2v-1.8h-0.2V34.8z M64.4,34.8h1.2v-0.2h-1v-1.6h-0.2V34.8z M62,34c0,0.5,0.4,0.9,1.1,0.9c0.3,0,0.6-0.1,0.7-0.1v-0.8H63v0.2h0.7
		v0.5c-0.2,0.1-0.4,0.1-0.5,0.1c-0.6,0-0.9-0.3-0.9-0.7c0-0.4,0.3-0.7,0.9-0.7c0.2,0,0.5,0.1,0.6,0.1l0.1-0.2
		c-0.2-0.1-0.5-0.1-0.7-0.1C62.4,33.1,62,33.4,62,34 M59.8,34.8H60v-1.4h0l1.4,1.4h0.1v-1.8h-0.2v1.4h0l-1.4-1.4h-0.2V34.8z
		 M58.1,34.1l0.4-0.8h0l0.4,0.8H58.1z M57.5,34.8h0.2l0.3-0.6H59l0.3,0.6h0.2l-0.9-1.8h-0.1L57.5,34.8z M55.2,34.7v-1.4h0.4
		c0.2,0,0.4,0,0.5,0.1c0.3,0.1,0.4,0.3,0.4,0.6c0,0.3-0.2,0.6-0.5,0.7c-0.1,0-0.3,0.1-0.5,0.1H55.2z M55,34.8h0.5
		c0.2,0,0.4,0,0.5-0.1c0.4-0.1,0.7-0.4,0.7-0.9c0-0.4-0.2-0.7-0.6-0.8c-0.1-0.1-0.3-0.1-0.5-0.1H55V34.8z M53.2,34.8h0.2v-0.7h0.2
		c0.2,0,0.3,0.5,0.6,0.7c0.1,0.1,0.2,0.1,0.3,0.1c0.1,0,0.1,0,0.2,0l0-0.2c0,0-0.1,0-0.1,0c-0.1,0-0.1,0-0.2-0.1
		c-0.2-0.1-0.3-0.5-0.4-0.5v0c0.3,0,0.5-0.2,0.5-0.5c0-0.2-0.1-0.4-0.4-0.5c-0.1,0-0.2,0-0.4,0h-0.5V34.8z M53.4,33.9v-0.7h0.3
		c0.1,0,0.2,0,0.3,0c0.1,0,0.2,0.1,0.2,0.3c0,0.2-0.1,0.3-0.3,0.3c-0.1,0-0.2,0-0.3,0H53.4z M51.8,34.7c-0.5,0-0.8-0.3-0.8-0.7
		c0-0.4,0.3-0.7,0.8-0.7c0.5,0,0.8,0.3,0.8,0.7C52.6,34.4,52.3,34.7,51.8,34.7 M51.8,34.9c0.6,0,1-0.3,1-0.9c0-0.5-0.4-0.9-1-0.9
		c-0.6,0-1,0.4-1,0.9C50.8,34.5,51.2,34.9,51.8,34.9 M48.6,34.8h0.2v-1.4h0l1.4,1.4h0.1v-1.8h-0.2v1.4h0l-1.4-1.4h-0.2V34.8z
		 M46.3,34.1l0.4-0.8h0l0.4,0.8H46.3z M45.7,34.8h0.2l0.3-0.6h0.9l0.3,0.6h0.2l-0.9-1.8h-0.1L45.7,34.8z"/>
	<path d="M69.8,25.4c0-0.8,0.2-1.2,0.7-1.2c0.6,0,0.7,0.4,0.7,1.2v0.1L69.8,25.4L69.8,25.4z M70.5,28.5c1,0,1.8-0.4,1.8-1.6v0h-1.1
		v0c0,0.7-0.3,0.9-0.7,0.9c-0.6,0-0.7-0.6-0.7-1.5v-0.1h2.5v-0.3c0-1.6-0.5-2.3-1.8-2.3c-1.3,0-1.9,0.7-1.9,2.1v0.8
		C68.6,27.8,69.2,28.5,70.5,28.5 M65.8,27.5c-0.6,0-0.7-0.6-0.7-1.5v-0.1c0-1,0.1-1.5,0.7-1.5c0.7,0,0.8,0.5,0.8,1.6
		C66.6,26.9,66.5,27.5,65.8,27.5 M65.8,30.1c1.3,0,1.9-0.6,1.9-2v-4.4h-1.1v0.7c-0.2-0.4-0.5-0.8-1.1-0.8c-1,0-1.6,0.7-1.6,2.1v0.6
		c0,1.4,0.6,2,1.6,2c0.5,0,0.9-0.3,1.1-0.8v0.7c0,0.9-0.2,1.1-0.7,1.1c-0.4,0-0.7-0.2-0.7-0.7v0h-1.1v0
		C64.1,29.6,64.8,30.1,65.8,30.1 M60.6,25.4c0-0.8,0.1-1.2,0.7-1.2c0.6,0,0.7,0.4,0.7,1.2v0.1L60.6,25.4L60.6,25.4z M61.3,28.5
		c1,0,1.8-0.4,1.8-1.6v0H62v0c0,0.7-0.3,0.9-0.7,0.9c-0.6,0-0.7-0.6-0.7-1.5v-0.1h2.5v-0.3c0-1.6-0.5-2.3-1.8-2.3
		c-1.3,0-1.9,0.7-1.9,2.1v0.8C59.5,27.8,60,28.5,61.3,28.5 M57.5,28.4h1.1V22h-1.1V28.4z M55.3,28.4h1.1V22h-1.1V28.4z M52.5,23.5
		c-1.3,0-1.9,0.7-1.9,2.1v0.7c0,1.4,0.6,2.1,1.9,2.1c1.3,0,1.9-0.7,1.9-2.1v-0.7C54.4,24.3,53.8,23.5,52.5,23.5 M52.5,24.3
		c0.6,0,0.7,0.6,0.7,1.6v0.4c0,1-0.1,1.6-0.7,1.6c-0.6,0-0.7-0.6-0.7-1.6v-0.4C51.8,24.9,51.9,24.3,52.5,24.3 M47.9,28.5
		c1.3,0,2-0.7,2-2.2v-0.1h-1.2v0.1c0,1.1-0.3,1.3-0.8,1.3c-0.8,0-0.9-0.8-0.9-2.3V25c0-1.4,0.1-2.3,0.9-2.3c0.6,0,0.8,0.3,0.8,1.3
		v0.1H50V24c0-1.5-0.7-2.2-2-2.2c-1.6,0-2.2,0.9-2.2,2.9v0.9C45.8,27.6,46.3,28.5,47.9,28.5"/>
	<path d="M90.1,20.4h1.1V14h-1.1V20.4z M87.3,19.8c-0.4,0-0.5-0.3-0.5-0.7V19c0-0.5,0.2-0.7,1.2-1v0.5C88,19.4,87.8,19.8,87.3,19.8
		 M86.9,20.5c0.6,0,1-0.3,1.2-0.8l0,0.6h1c-0.1-0.4-0.1-0.9-0.1-1.5c0-0.4,0-1.1,0-1.7c0-1.4-0.7-1.6-1.7-1.6c-1,0-1.7,0.5-1.7,1.6
		v0.1h1v-0.1c0-0.6,0.2-0.9,0.7-0.9c0.4,0,0.6,0.2,0.6,0.8v0.3c-1.9,0.5-2.4,1-2.4,1.7v0.1C85.6,20,86.1,20.5,86.9,20.5 M81.3,20.4
		h1.1v-2.6c0-0.9,0.1-1.5,0.7-1.5c0.5,0,0.5,0.5,0.5,1.2v2.8h1.1v-3.2c0-1.2-0.3-1.6-1.2-1.6c-0.6,0-1,0.3-1.2,0.8v-0.6h-1.1V20.4z
		 M78.5,15.5c-1.3,0-1.9,0.7-1.9,2.1v0.7c0,1.4,0.6,2.1,1.9,2.1c1.3,0,1.9-0.7,1.9-2.1v-0.7C80.4,16.2,79.8,15.5,78.5,15.5
		 M78.5,16.3c0.6,0,0.7,0.6,0.7,1.6v0.4c0,1-0.1,1.6-0.7,1.6c-0.6,0-0.7-0.6-0.7-1.6v-0.4C77.8,16.8,77.9,16.3,78.5,16.3 M74.6,15.1
		h1.1V14h-1.1V15.1z M74.6,20.4h1.1v-4.7h-1.1V20.4z M73.1,20.4h0.8v-0.7h-0.3c-0.4,0-0.5-0.1-0.5-0.6v-2.7h0.8v-0.7h-0.8v-1.3H72
		v1.3h-0.6v0.7H72v2.8C72,20.1,72.2,20.4,73.1,20.4 M69,19.8c-0.4,0-0.5-0.3-0.5-0.7V19c0-0.5,0.2-0.7,1.2-1v0.5
		C69.8,19.4,69.5,19.8,69,19.8 M68.6,20.5c0.6,0,1-0.3,1.2-0.8l0,0.6h1c-0.1-0.4-0.1-0.9-0.1-1.5c0-0.4,0-1.1,0-1.7
		c0-1.4-0.7-1.6-1.7-1.6c-1,0-1.7,0.5-1.7,1.6v0.1h1v-0.1c0-0.6,0.2-0.9,0.7-0.9c0.4,0,0.6,0.2,0.6,0.8v0.3c-1.9,0.5-2.4,1-2.4,1.7
		v0.1C67.4,20,67.8,20.5,68.6,20.5 M63,20.4h1.1v-2.6c0-0.9,0.1-1.5,0.7-1.5c0.5,0,0.5,0.5,0.5,1.2v2.8h1.1v-3.2
		c0-1.2-0.3-1.6-1.2-1.6c-0.6,0-1,0.3-1.2,0.8v-0.6H63V20.4z M60,20.4h1.1v-2.5c0-0.9,0.2-1.1,0.9-1.1h0.3v-1.2h-0.2
		c-0.6,0-0.9,0.6-1,1.1v-1.1H60V20.4z M56.6,17.4c0-0.8,0.2-1.2,0.7-1.2c0.6,0,0.7,0.4,0.7,1.2v0.1L56.6,17.4L56.6,17.4z M57.3,20.5
		c1,0,1.8-0.4,1.8-1.6v0H58v0c0,0.7-0.3,0.9-0.7,0.9c-0.6,0-0.7-0.6-0.7-1.5v-0.1h2.5v-0.3c0-1.6-0.5-2.3-1.8-2.3
		c-1.3,0-1.9,0.7-1.9,2.1v0.8C55.5,19.8,56,20.5,57.3,20.5 M54.1,20.4H55v-0.7h-0.3c-0.4,0-0.5-0.1-0.5-0.6v-2.7H55v-0.7h-0.8v-1.3
		H53v1.3h-0.6v0.7H53v2.8C53,20.1,53.2,20.4,54.1,20.4 M48.3,20.4h1.1v-2.6c0-0.9,0.1-1.5,0.7-1.5c0.5,0,0.5,0.5,0.5,1.2v2.8h1.1
		v-3.2c0-1.2-0.3-1.6-1.2-1.6c-0.6,0-1,0.3-1.2,0.8v-0.6h-1.1V20.4z M46,20.4h1.2V14H46V20.4z"/>
	<path d="M70.1,12.4h1.5c1.7,0,2.6-0.5,2.6-2.8V8.8c0-2.3-0.9-2.9-2.6-2.9h-1.5V12.4z M71.2,11.5V6.8h0.4c1.1,0,1.3,0.4,1.3,2.2v0.4
		c0,1.8-0.2,2.2-1.3,2.2H71.2z M66.2,8.8V6.8h0.5c0.9,0,1.1,0.2,1.1,1c0,0.8-0.3,1-1.1,1H66.2z M67.9,12.4h1.2L68,9.3
		c0.6-0.2,1-0.7,1-1.6C69,6.3,68.3,6,66.7,6H65v6.4h1.2V9.6h0.5c0.1,0,0.2,0,0.3,0L67.9,12.4z M61.8,12.5c1.6,0,2.2-0.9,2.2-2.9V8.7
		c0-2-0.6-2.9-2.2-2.9c-1.6,0-2.2,0.9-2.2,2.9v0.9C59.6,11.6,60.1,12.5,61.8,12.5 M61.8,11.6c-0.9,0-0.9-0.8-0.9-2.3V9
		c0-1.4,0.1-2.3,0.9-2.3c0.9,0,0.9,0.8,0.9,2.3v0.4C62.7,10.8,62.6,11.6,61.8,11.6 M55.7,12.4h1.2V9.5h1.9V8.6h-1.9V6.8H59V6h-3.2
		V12.4z M50.4,12.4h1.2l1.1-2.2l1,2.2H55L53.3,9l1.5-3h-1.2l-0.9,1.9L51.9,6h-1.3l1.5,3.1L50.4,12.4z M48,12.5
		c1.6,0,2.2-0.9,2.2-2.9V8.7c0-2-0.6-2.9-2.2-2.9s-2.2,0.9-2.2,2.9v0.9C45.8,11.6,46.3,12.5,48,12.5 M48,11.6
		c-0.9,0-0.9-0.8-0.9-2.3V9c0-1.4,0.1-2.3,0.9-2.3s0.9,0.8,0.9,2.3v0.4C48.9,10.8,48.8,11.6,48,11.6"/>
</g>
<g>
	<path fill="#B99643" d="M29.2,20.4c0-13.4-5.6-19.1-11-19.1c-5.3,0-11,5.8-11,19.1s5.1,19.4,11,19.4C24.2,39.8,29.2,33.7,29.2,20.4
		 M0.3,20.4c0-11.7,8.8-19.9,18-19.9c9.1,0,18,8.1,18,19.9c0,11.7-8.8,20.1-18,20.1C9.1,40.5,0.3,32.1,0.3,20.4"/>
	<path fill="#B99643" d="M20.4,24.2L20.4,24.2l-4.5,0.1v-0.1c0.6-0.2,1.2-0.2,1.2-2.4V8.3c0-2.2-0.6-2.2-1.2-2.4V5.8l4.5,0v0.1
		c-0.7,0.2-1.2,0.2-1.2,2.4l-0.1,13.5C19.1,24,19.8,24,20.4,24.2"/>
	<path fill="#B99643" d="M22.8,32.1c-0.8,1-1.9,1.7-3.6,1.7c-2.6,0-4.9-2.2-4.9-9.1c0-4.6,1-7.2,2.4-8.2v-0.5
		c-2.6,0.8-5.3,3.5-5.3,8.9c0,6.7,3.6,9.6,7.3,9.6c2.4,0,3.8-1.3,4.4-2.2L22.8,32.1z"/>
	<path fill="#B99643" d="M22.5,16c-0.1,0.4-0.3,0.7-0.8,0.7c-0.6,0-1.1-0.4-2.2-0.6v0.5c1.2,0.4,2.2,1.5,2.9,3.7h0.4V16H22.5z"/>
</g>
<g>
</g>
<g>
</g>
<g>
</g>
<g>
</g>
<g>
</g>
<g>
</g>
<g>
</g>
<g>
</g>
<g>
</g>
<g>
</g>
<g>
</g>
<g>
</g>
<g>
</g>
<g>
</g>
<g>
</g>
</svg>
